<?xml version="1.0" encoding="UTF-8"?>
<svg width="156px" height="40px" viewBox="0 0 156 40" version="1.1" xmlns="http://www.w3.org/2000/svg" xmlns:xlink="http://www.w3.org/1999/xlink">
    <!-- Generator: Sketch 53.2 (72643) - https://sketchapp.com -->
    <title>Aptoide-LOGO</title>
    <desc>Created with Sketch.</desc>
    <defs>
        <polygon id="path-1" points="16.4529496 0.794644088 16.4529496 17.652 0.0064793894 17.652 0.0064793894 0.794644088 16.4529496 0.794644088"></polygon>
    </defs>
    <g id="Homepage" stroke="none" stroke-width="1" fill="none" fill-rule="evenodd">
        <g id="Home-Copy-7" transform="translate(-193.000000, -5157.000000)">
            <g id="Footer" transform="translate(-56.000000, 5089.000000)">
                <g id="Aptoide-LOGO" transform="translate(249.000000, 68.000000)">
                    <path d="M58.4462417,11.4938378 L55.460918,20.3143784 L61.4977813,20.3143784 L58.4462417,11.4938378 Z M48.7349612,25.7922162 L55.1163712,9.28951351 C55.3913353,8.5532973 55.8784144,7.9532973 56.433954,7.48518919 C56.9861266,7.01708108 57.7504144,6.81816216 58.5147022,6.81816216 C59.2767453,6.81816216 60.0399108,7.01708108 60.5943281,7.48518919 C61.2205727,7.9532973 61.6369468,8.62140541 61.9141554,9.28951351 L68.1541554,25.7922162 C68.2944432,26.1262703 68.3640259,26.5262703 68.4324863,26.9273514 C68.4324863,27.2614054 68.3640259,27.6614054 68.1541554,27.9965405 C67.9476518,28.2635676 67.6704432,28.5305946 67.3921122,28.7316757 C67.0453209,28.9316757 66.6996518,28.9976216 66.2844,28.9976216 C65.2429036,29.0657297 64.2698676,28.3976216 63.9937813,27.4624865 L63.0229899,24.5878919 L54.0759971,24.5878919 L53.1040835,27.3954595 C52.8268748,28.3976216 51.8549612,29.0657297 50.8157094,28.9976216 C50.1905871,28.9976216 49.6372921,28.7987027 49.1513353,28.3976216 C48.7349612,27.9965405 48.4577525,27.4624865 48.4577525,26.9273514 C48.5262129,26.4614054 48.596918,26.0592432 48.7349612,25.7922162 L48.7349612,25.7922162 Z" id="Fill-1" fill="#000000"></path>
                    <path d="M74.2582446,20.5141622 C74.2582446,21.6492973 74.5354532,22.7184865 75.1605755,23.6536216 C76.0617842,25.0568649 78.0044892,25.4557838 79.4612374,24.5909189 C79.5285755,24.5228108 79.6699856,24.4557838 79.738446,24.3887568 C80.2928633,23.9228108 80.7092374,23.3865946 80.9875683,22.7184865 C81.2636547,22.0503784 81.4039424,21.3152432 81.4039424,20.6482162 C81.4039424,19.912 81.2636547,19.1779459 80.9875683,18.5098378 C80.7092374,17.8406486 80.2928633,17.3065946 79.738446,16.8395676 C79.1829065,16.3703784 78.490446,16.1692973 77.795741,16.1692973 C77.1021583,16.1692973 76.4096978,16.3703784 75.8552806,16.7714595 C75.299741,17.1725405 74.8833669,17.7065946 74.6746187,18.3757838 C74.3985324,19.1109189 74.2582446,19.844973 74.2582446,20.5141622 M69.6814964,31.0038919 L69.6814964,14.8352432 C69.6814964,14.1671351 69.8891223,13.5660541 70.3043741,13.099027 C70.7218705,12.6298378 71.3458705,12.4287568 71.9709928,12.4287568 C73.0798273,12.3628108 74.1190791,13.1638919 74.2582446,14.2341622 C74.6746187,13.5660541 75.299741,13.0298378 76.0617842,12.7617297 C76.8249496,12.4287568 77.7284029,12.2276757 78.5600288,12.2276757 C80.016777,12.1628108 81.4039424,12.6298378 82.5823597,13.432 C83.6923165,14.2341622 84.5957698,15.3692973 85.079482,16.6384865 C85.6350216,17.9736216 85.9144748,19.3779459 85.9144748,20.8492973 C85.9144748,22.2503784 85.5654388,23.5876757 85.0098993,24.7898378 C84.3870216,25.9909189 83.4846906,27.0611892 82.3747338,27.8633514 C81.1974388,28.6644324 79.8787338,29.0655135 78.490446,29.0655135 C77.7284029,29.0655135 77.0348201,28.9314595 76.3401151,28.6644324 C75.5780719,28.3974054 74.9529496,27.9963243 74.3289496,27.5292973 L74.3289496,30.9357838 C74.3289496,31.3368649 74.2582446,31.804973 74.0506187,32.204973 C73.8418705,32.5401081 73.5657842,32.8730811 73.2189928,33.0741622 C72.8722014,33.2752432 72.4558273,33.4082162 72.0405755,33.4082162 C71.4154532,33.4082162 70.7914532,33.2071351 70.3750791,32.7411892 C69.8891223,32.2730811 69.6814964,31.604973 69.6814964,31.0038919" id="Fill-3" fill="#000000"></path>
                    <path d="M89.0334647,26.4610811 L89.0334647,16.3702703 L87.9942129,16.3702703 C87.4386734,16.3702703 86.9527165,16.2372973 86.5363424,15.8372973 C86.1895511,15.4351351 85.9819252,14.9681081 85.9819252,14.4340541 C85.9819252,13.8989189 86.1895511,13.4318919 86.5363424,13.0989189 C86.8831338,12.7637838 87.4386734,12.5637838 87.9942129,12.5637838 L89.0334647,12.5637838 L89.0334647,9.95621622 C89.0334647,9.28918919 89.2410906,8.68810811 89.6585871,8.22108108 C90.0738388,7.75189189 90.6978388,7.55081081 91.3207165,7.55081081 C91.7370906,7.55081081 92.1534647,7.62 92.5002561,7.88702703 C92.8481698,8.08702703 93.1253784,8.42108108 93.3330043,8.75621622 C93.5417525,9.15621622 93.6113353,9.55621622 93.6113353,10.0254054 L93.6113353,12.6297297 L94.9277957,12.6297297 C95.4844576,12.6297297 96.0377525,12.7616216 96.5248317,13.0989189 C96.9412058,13.4318919 97.2161698,13.9659459 97.1465871,14.5681081 C97.2161698,15.1021622 96.9412058,15.6362162 96.5248317,16.0372973 C96.1073353,16.3702703 95.5540403,16.5054054 94.9277957,16.5054054 L93.6113353,16.5054054 L93.6113353,26.5940541 C93.6113353,27.0610811 93.5417525,27.4621622 93.3330043,27.8632432 C93.1253784,28.1962162 92.8481698,28.5302703 92.5002561,28.7324324 C92.1534647,28.9313514 91.7382129,29.0654054 91.3207165,29.0654054 C90.6978388,29.0654054 90.0738388,28.8664865 89.6585871,28.3983784 C89.1715079,27.7302703 88.9627597,27.1281081 89.0334647,26.4610811" id="Fill-5" fill="#000000"></path>
                    <path d="M104.778578,16.2372973 C104.083873,16.2372973 103.391413,16.4383784 102.836996,16.9064865 C102.280334,17.3735135 101.86396,17.9086486 101.585629,18.5767568 C101.309542,19.2437838 101.170377,19.9789189 101.170377,20.712973 C101.170377,21.4481081 101.309542,22.1832432 101.585629,22.8513514 C101.86396,23.5194595 102.280334,24.0545946 102.836996,24.5227027 C104.015413,25.3908108 105.611327,25.3908108 106.790866,24.5227027 C107.345283,24.0545946 107.760535,23.5194595 108.036622,22.8513514 C108.314953,22.1832432 108.454118,21.4481081 108.454118,20.712973 C108.454118,19.9778378 108.314953,19.2437838 108.036622,18.5767568 C107.760535,17.9086486 107.345283,17.3735135 106.790866,16.9064865 C106.164622,16.4383784 105.472161,16.1713514 104.778578,16.2372973 M104.778578,12.2275676 C105.887413,12.2275676 107.066953,12.4297297 108.036622,12.8956757 C109.01078,13.3648649 109.910866,13.9648649 110.674032,14.7691892 C111.367614,15.5702703 111.991614,16.5054054 112.337283,17.4394595 C112.753658,18.4437838 112.963528,19.5778378 112.963528,20.6481081 C112.963528,21.7843243 112.753658,22.8513514 112.337283,23.8545946 C111.991614,24.8578378 111.436075,25.7248649 110.674032,26.527027 C109.980449,27.3291892 109.07924,27.9291892 108.107327,28.3313514 C107.066953,28.7994595 105.958118,28.9994595 104.778578,28.9994595 C103.25337,28.9994595 101.794377,28.5994595 100.546377,27.8632432 C99.2972547,27.1281081 98.3264633,26.0589189 97.6340029,24.7897297 C96.9415424,23.4535135 96.5925065,22.0502703 96.5925065,20.5821622 C96.5925065,19.5108108 96.8012547,18.4437838 97.2165065,17.4394595 C97.6340029,16.4383784 98.1872978,15.5021622 98.8820029,14.7 C99.5755856,13.8989189 100.476794,13.2989189 101.517168,12.8297297 C102.557542,12.4297297 103.668622,12.2275676 104.778578,12.2275676" id="Fill-7" fill="#000000"></path>
                    <path d="M117.124912,5.88259459 C117.540164,5.88259459 118.024999,6.01556757 118.37179,6.21664865 C118.788164,6.41664865 119.065373,6.75178378 119.343704,7.08367568 C119.551329,7.41772973 119.690495,7.81989189 119.690495,8.21881081 C119.690495,8.88908108 119.413286,9.49016216 118.926207,9.95718919 C118.024999,10.8912432 116.430207,10.9593514 115.460538,10.0912432 C115.389833,10.0252973 115.389833,10.0252973 115.321373,9.95718919 C114.835416,9.49016216 114.558207,8.88691892 114.558207,8.21881081 C114.558207,7.5507027 114.835416,6.9507027 115.321373,6.54854054 C115.806207,6.14962162 116.430207,5.88259459 117.124912,5.88259459" id="Fill-9" fill="#000000"></path>
                    <path d="M114.835416,26.4610811 L114.835416,14.8351351 C114.835416,14.167027 115.044164,13.5659459 115.460538,13.0989189 C115.874668,12.6297297 116.498668,12.4297297 117.124912,12.4297297 C117.540164,12.4297297 117.955416,12.4956757 118.304452,12.7616216 C118.647876,12.9648649 118.927329,13.2989189 119.134955,13.632973 C119.344826,14.0340541 119.412164,14.4340541 119.412164,14.9010811 L119.412164,26.527027 C119.412164,26.992973 119.343704,27.3951351 119.134955,27.7972973 C118.927329,28.1302703 118.647876,28.4654054 118.304452,28.6654054 C117.955416,28.8664865 117.540164,28.9994595 117.124912,28.9994595 C116.498668,28.9994595 115.87579,28.7994595 115.460538,28.3302703 C115.044164,27.7302703 114.764711,27.1281081 114.835416,26.4610811" id="Fill-11" fill="#000000"></path>
                    <path d="M132.939047,20.5141622 C132.939047,19.444973 132.660717,18.3757838 132.035594,17.5065946 C131.413839,16.6384865 130.441925,16.1714595 129.400429,16.2374054 C128.706846,16.2374054 128.015508,16.4374054 127.458846,16.9065946 C126.903306,17.3736216 126.488055,17.9087568 126.211968,18.5768649 C125.93476,19.2438919 125.795594,19.979027 125.795594,20.7130811 C125.795594,21.2492973 125.864055,21.7822703 126.00322,22.2503784 C126.140141,22.7865946 126.348889,23.2514595 126.695681,23.7206486 C126.975134,24.1217297 127.390386,24.5228108 127.807882,24.7217297 C128.291594,24.9898378 128.777551,25.1238919 129.333091,25.1238919 C130.025551,25.1238919 130.788717,24.9228108 131.344256,24.4557838 C131.898673,23.9876757 132.313925,23.3865946 132.591134,22.7184865 C132.79876,21.9833514 132.939047,21.2492973 132.939047,20.5141622 M137.514673,7.82010811 L137.514673,26.4611892 C137.514673,26.9282162 137.447335,27.3292973 137.238587,27.7303784 C137.030961,28.0633514 136.751508,28.3984865 136.405839,28.5995676 C136.06017,28.7984865 135.642673,28.9314595 135.227422,28.9314595 C134.116342,28.9995676 133.075968,28.1963243 132.939047,27.1282162 C132.521551,27.7974054 131.897551,28.2655135 131.135508,28.5995676 C130.37122,28.9314595 129.540717,29.1336216 128.706846,29.1336216 C127.319681,29.1336216 125.932515,28.7325405 124.822558,27.9303784 C123.645263,27.1282162 122.740688,26.059027 122.186271,24.8579459 C121.563393,23.5876757 121.286184,22.2514595 121.286184,20.9152432 C121.286184,19.4460541 121.563393,18.0428108 122.118932,16.7065946 C122.603767,15.4374054 123.504976,14.3011892 124.616055,13.499027 C125.795594,12.6979459 127.180515,12.2298378 128.637263,12.2947027 C129.192803,12.2947027 129.67876,12.3638919 130.162472,12.4957838 C130.650673,12.6298378 131.135508,12.7617297 131.620342,12.964973 C132.107422,13.1638919 132.521551,13.499027 132.939047,13.8330811 L132.939047,7.82010811 C132.939047,7.152 133.146673,6.54875676 133.563047,6.08281081 C133.978299,5.61578378 134.602299,5.41362162 135.228544,5.41362162 C135.642673,5.41362162 136.06017,5.48172973 136.405839,5.74875676 C136.751508,5.94875676 137.030961,6.28389189 137.238587,6.61794595 C137.447335,6.95091892 137.514673,7.352 137.514673,7.82010811" id="Fill-13" fill="#000000"></path>
                    <g id="Group-17" transform="translate(139.165468, 11.481189)">
                        <mask id="mask-2" fill="white">
                            <use xlink:href="#path-1"></use>
                        </mask>
                        <g id="Clip-16"></g>
                        <path d="M4.52321439,7.69632432 L11.8069554,7.69632432 C11.738495,6.76227027 11.3221209,5.95902703 10.6274158,5.29091892 C9.93271079,4.69091892 9.03262446,4.35578378 8.12917122,4.35578378 C7.22796259,4.35578378 6.32563165,4.69091892 5.70275396,5.29091892 C5.00917122,5.95902703 4.59279712,6.82713514 4.52321439,7.69632432 M14.3040777,10.6368649 L4.59279712,10.6368649 C4.66125755,11.572 5.21567482,12.4422703 6.04954532,12.9752432 C6.88117122,13.5082162 7.92042302,13.7763243 8.8957036,13.7763243 C9.51745899,13.7763243 10.0729986,13.7103784 10.6274158,13.4411892 C11.1122504,13.2411892 11.738495,12.9752432 12.4309554,12.5752432 C12.9169122,12.3071351 13.4724518,12.1060541 14.0268691,11.972 C14.3725381,11.972 14.6497468,12.0401081 14.9280777,12.239027 C15.2064086,12.4422703 15.4836173,12.6401081 15.6216604,12.9752432 C15.7608259,13.2411892 15.8999914,13.5752432 15.8999914,13.9114595 C15.8999914,14.4455135 15.6216604,14.9114595 15.2748691,15.2455135 C14.7889122,15.7136216 14.1649122,16.1147027 13.5397899,16.4487568 C12.7777468,16.8498378 11.9461209,17.1179459 11.1122504,17.3179459 C10.2795022,17.5179459 9.37829353,17.652 8.54666763,17.652 C7.02033669,17.652 5.42554532,17.3179459 4.10684029,16.5828108 C2.78925755,15.8476757 1.74888345,14.8455135 1.05530072,13.5752432 C0.361717986,12.239027 -0.0546561151,10.7698378 0.0138043165,9.23362162 C0.0138043165,8.16443243 0.22367482,7.09524324 0.638926619,6.09308108 C1.05305612,5.09091892 1.60971799,4.1547027 2.37288345,3.35362162 C4.66125755,0.881189189 8.40637986,0.079027027 11.5286245,1.48335135 C12.4994158,1.95145946 13.4017468,2.55254054 14.1649122,3.35362162 C14.8573727,4.08875676 15.4129122,4.95686486 15.8292863,5.892 C16.2434158,6.76227027 16.4532863,7.76335135 16.4532863,8.69848649 C16.3152432,9.96767568 15.6912432,10.6368649 14.3040777,10.6368649" id="Fill-15" fill="#000000" mask="url(#mask-2)"></path>
                    </g>
                    <path d="M32.3703367,21.2552432 C32.300754,22.1060541 31.9113151,22.8909189 31.2401784,23.4692973 L22.0451568,30.4865946 C21.3740201,30.9633514 20.489646,30.9633514 19.8162647,30.4865946 L13.1340777,25.3092973 L11.8602647,24.3547027 L20.946423,18.0876757 L25.4042072,15.0228108 L31.6632863,10.7287568 C32.1952576,10.5255135 32.5465381,10.7979459 32.5465381,11.4455135 L32.3703367,21.2552432 Z M10.6223655,23.4022703 C10.5157468,23.2995676 10.4113727,23.1979459 10.304754,23.0952432 C9.84573237,22.5838919 9.56066763,21.9028108 9.48996259,21.1882162 L9.31376115,11.3774054 C9.27896978,10.6292973 9.8086964,10.3547027 10.4439194,10.7979459 L20.1361209,17.5417297 L11.0813871,23.7752432 L10.6223655,23.4022703 Z M40.0468835,8.07254054 C39.1254734,4.42821622 36.7562935,2.14605405 32.9023079,1.29416216 C28.9405813,0.443351351 24.9440633,0.000108108108 20.9138763,0.000108108108 C16.9184806,0.000108108108 12.919718,0.443351351 9.06685468,1.32767568 C5.2813295,2.17956757 2.70003453,4.1892973 1.7449554,7.8692973 C0.721415827,11.7514595 0.189444604,15.7709189 0.189444604,19.7892973 C0.189444604,23.7428108 0.649588489,27.6930811 1.60466763,31.5071351 C2.52271079,35.1536216 4.89301295,37.4357838 8.74699856,38.2876757 C16.5986245,40.0228108 24.7330705,40.0228108 32.5824518,38.2876757 C36.3690993,37.4357838 38.9492719,35.4238919 39.9032288,31.7125405 C40.9290129,27.8303784 41.4598619,23.8087568 41.4598619,19.7892973 C41.4598619,15.8401081 41.0008403,11.8876757 40.0468835,8.07254054 L40.0468835,8.07254054 Z" id="Fill-18" fill="#000000"></path>
                </g>
            </g>
        </g>
    </g>
</svg>