<?xml version="1.0" encoding="UTF-8"?>
<svg width="526px" height="369px" viewBox="0 0 526 369" version="1.1" xmlns="http://www.w3.org/2000/svg" xmlns:xlink="http://www.w3.org/1999/xlink">
    <!-- Generator: Sketch 53.2 (72643) - https://sketchapp.com -->
    <title>Group 13</title>
    <desc>Created with Sketch.</desc>
    <defs>
        <polygon id="path-1" points="0.473993949 0.289871795 27.6533708 0.289871795 27.6533708 27.9105575 0.473993949 27.9105575"></polygon>
        <polygon id="path-3" points="0.434351281 0.521071448 25.7634354 0.521071448 25.7634354 27.7600638 0.434351281 27.7600638"></polygon>
        <polygon id="path-5" points="0 0.449957337 36.979223 0.449957337 36.979223 42.9185699 0 42.9185699"></polygon>
        <polygon id="path-7" points="0.26508143 0.00290990143 38.7868189 0.00290990143 38.7868189 31.4666667 0.26508143 31.4666667"></polygon>
    </defs>
    <g id="Homepage" stroke="none" stroke-width="1" fill="none" fill-rule="evenodd">
        <g id="Home-Copy-6" transform="translate(-74.000000, -2221.000000)">
            <g id="Group-13" transform="translate(64.303349, 2220.087830)">
                <polyline id="Stroke-1" stroke="#F8E71C" stroke-width="5" transform="translate(267.220385, 229.877435) rotate(13.000000) translate(-267.220385, -229.877435) " points="31.1153118 342.532441 69.0412377 381.641609 122.137534 350.119089 165.752349 393.139173 370.552349 109.273377 448.300497 109.273377 503.325458 66.6156969"></polyline>
                <g id="Group-41" transform="translate(154.696651, 0.912170)">
                    <path d="M59.4129619,237.305495 L57.5443947,234.068896 C54.386661,228.603779 56.2286723,221.520363 61.6339978,218.33014 L136.717082,169.561478 C142.122408,166.368815 149.128327,168.231202 152.283647,173.696319 L158.456678,184.384906 C161.611998,189.852464 159.772401,196.93588 154.367075,200.126102 L74.9819407,241.437895 C69.5742011,244.630558 62.5706955,242.770612 59.4129619,237.305495" id="Fill-1" fill="#000000"></path>
                    <polygon id="Fill-3" fill="#DD8F7A" points="154 81.8855863 209.155448 12 222 22.1095708 166.844552 92"></polygon>
                    <g id="Group-7" transform="translate(204.000000, 0.000000)">
                        <mask id="mask-2" fill="white">
                            <use xlink:href="#path-1"></use>
                        </mask>
                        <g id="Clip-6"></g>
                        <path d="M26.5483365,16.480109 L19.2672358,25.8953333 C17.5020472,28.1831218 14.2186509,28.5829295 11.9740283,26.7862628 L2.45072642,19.1504295 C0.206103774,17.3537628 -0.186160377,14.0072244 1.5790283,11.7194359 L8.86255031,2.30421154 C10.627739,0.0164230769 13.9087138,-0.383384615 16.1533365,1.41575 L25.6766384,9.04911538 C27.921261,10.8507179 28.3135252,14.1923205 26.5483365,16.480109" id="Fill-5" fill="#DD8F7A" mask="url(#mask-2)"></path>
                    </g>
                    <polygon id="Fill-8" fill="#2C5156" points="137 85.5001366 192.884263 18 219 39.502295 163.115737 107"></polygon>
                    <path d="M14.0024166,183.926553 L14.0000009,180.221381 C13.9975851,173.962416 19.121326,168.840348 25.3852864,168.83552 L114.597804,165.000003 C120.861764,164.995176 125.990336,170.11483 125.992752,176.373795 L125.999999,188.614139 C126.002415,194.873104 120.878674,199.995172 114.614714,200 L25.397365,195.302759 C19.1334046,195.305173 14.0048323,190.185518 14.0024166,183.926553" id="Fill-10" fill="#000000"></path>
                    <path d="M124.160879,196.477034 L105.467779,185.395259 C86.6512675,174.238395 80.3742575,149.701044 91.5175231,130.86566 L118.365413,85.4873049 C129.508679,66.6519207 154.023863,60.3686149 172.840374,71.5230572 L191.533474,82.6048322 C210.347566,93.7616969 216.626995,118.299048 205.48131,137.134432 L178.63342,182.510364 C167.490155,201.348171 142.97739,207.631477 124.160879,196.477034" id="Fill-12" fill="#2C5156"></path>
                    <path d="M184.58135,54.2445934 L180.073313,56.0432816 C178.19742,56.7912509 177.428893,59.1089383 178.462598,60.8949059 L179.317063,62.3704917 C180.350769,64.1564593 182.688269,64.5457086 184.208136,63.1820639 L187.859253,59.9077899 C190.599433,57.4501763 187.964834,52.8962133 184.58135,54.2445934" id="Fill-14" fill="#F24725"></path>
                    <path d="M218.206606,76.2867794 L230.307589,55.7414591 C230.72864,55.0289047 231.658362,54.7865392 232.376341,55.2058315 L241.766041,60.6881382 C245.837832,63.0681671 247.215378,68.3323449 244.827795,72.3871191 L239.88226,80.7826587 C237.494677,84.8374329 232.208407,86.2116451 228.136616,83.8316162 L218.746915,78.3493095 C218.028936,77.9300172 217.785554,77.0017575 218.206606,76.2867794" id="Fill-16" fill="#000000"></path>
                    <path d="M215.230147,78.4549527 L232.704632,48.8578166 C233.185354,48.0441168 234.268217,47.7593218 235.110719,48.2212162 C235.953221,48.687897 236.250575,49.7313474 235.769853,50.5450473 L218.295368,80.1421834 C217.814646,80.9558832 216.731783,81.2406782 215.889281,80.7787838 C215.046779,80.312103 214.749425,79.2686526 215.230147,78.4549527" id="Fill-18" fill="#000000"></path>
                    <path d="M193.746453,88.026332 C191.379448,90.0045204 188.079249,90.5690336 185.218915,89.384991 C183.007442,88.468853 180.334233,86.665281 177.396133,83.2590655 C173.967134,79.2835527 172.589216,75.7601289 172.117759,73.076299 C171.61957,70.2369887 172.727737,67.3570143 174.956221,65.4960342 L192.264037,51.0291863 C197.717384,46.4748082 205.890114,47.1302177 210.519627,52.4954855 L212.920655,55.2821717 C217.550168,60.6474395 216.884295,68.6917533 211.430948,73.2461313 L193.746453,88.026332 Z" id="Fill-20" fill="#F9A580"></path>
                    <path d="M194.759539,52.6863922 C194.72482,52.6331614 194.685472,52.5799307 194.64381,52.5313287 C194.106826,51.8971883 193.160162,51.8208138 192.528281,52.3554357 C191.94732,52.8507132 191.83622,53.6931479 192.241272,54.313402 C192.275991,54.3689471 192.315339,54.4198635 192.357002,54.4707799 C192.893985,55.1026058 193.840649,55.1789804 194.470216,54.6443584 C195.051176,54.1513953 195.164591,53.3089607 194.759539,52.6863922" id="Fill-22" fill="#000000"></path>
                    <polygon id="Fill-24" fill="#F9A580" points="161 110.121318 266.180922 93 269 110.881125 163.819078 128"></polygon>
                    <g id="Group-28" transform="translate(258.000000, 87.000000)">
                        <mask id="mask-4" fill="white">
                            <use xlink:href="#path-3"></use>
                        </mask>
                        <g id="Clip-27"></g>
                        <path d="M21.2633129,25.6844935 L9.08642517,27.6912279 C6.13157823,28.1837678 3.28130612,25.9795298 2.75356803,22.7950885 L0.518585034,9.28193904 C-0.00672108844,6.09993614 1.98020068,3.08861538 4.93747959,2.59851379 L17.1119354,0.589341074 C20.0692143,0.0992394775 22.9170544,2.30103919 23.4447925,5.48791872 L25.6797755,18.9986299 C26.2050816,22.1830711 24.2181599,25.1919536 21.2633129,25.6844935" id="Fill-26" fill="#F9A580" mask="url(#mask-4)"></path>
                    </g>
                    <polygon id="Fill-29" fill="#2C5156" points="158 102.487325 251.551548 87 257 120.512675 163.44603 136"></polygon>
                    <g id="Group-33" transform="translate(0.000000, 153.000000)">
                        <mask id="mask-6" fill="white">
                            <use xlink:href="#path-5"></use>
                        </mask>
                        <g id="Clip-32"></g>
                        <path d="M0.544603804,5.02328318 L17.3989417,39.2733628 C20.0607967,43.0887986 25.367381,44.0660688 29.2574082,41.456013 L33.2648701,38.7643178 C38.0992687,35.5179558 38.2387225,28.5666112 33.5413312,25.1353602 L4.75513007,1.05177227 C2.07370254,-0.907570475 -1.34413895,2.31477997 0.544603804,5.02328318" id="Fill-31" fill="#000000" mask="url(#mask-6)"></path>
                    </g>
                    <g id="Group-36" transform="translate(41.000000, 212.000000)">
                        <mask id="mask-8" fill="white">
                            <use xlink:href="#path-7"></use>
                        </mask>
                        <g id="Clip-35"></g>
                        <path d="M1.31551875,5.26260513 L21.5979562,29.3979897 C25.1591437,32.484759 30.5240812,32.0712205 33.5807062,28.4749128 L36.7323937,24.7678359 C40.5348937,20.2952205 38.8457062,13.3758359 33.4222687,11.1973744 L4.32583125,0.233682051 C1.23020625,-1.00939487 -1.21216875,3.0718359 1.31551875,5.26260513" id="Fill-34" fill="#000000" mask="url(#mask-8)"></path>
                    </g>
                    <path d="M209.061544,51.7838809 C208.974836,51.6442426 208.977179,51.4609673 209.084978,51.3169653 C209.202152,51.1642359 211.993216,47.5380035 215.585744,47.0536331 C217.097277,46.8485393 218.522102,47.2325447 219.822724,48.1903762 C220.024262,48.3365601 220.059414,48.6092912 219.900058,48.7969302 C219.740703,48.9845691 219.44777,49.015115 219.246232,48.8667493 C218.154179,48.063829 216.968387,47.7409154 215.719321,47.9110996 C212.518151,48.3409238 209.870038,51.7838809 209.84426,51.8187905 C209.696622,52.0107932 209.406033,52.0587939 209.195121,51.9213374 C209.138878,51.884246 209.094352,51.8362453 209.061544,51.7838809" id="Fill-37" fill="#000000"></path>
                    <path d="M210.066075,53.2579568 C210.046231,53.2212038 210.031348,53.1818256 210.018945,53.1398222 C209.94453,52.8641749 210.095841,52.5727763 210.358775,52.4966452 C210.445593,52.4703931 218.985984,50.0026934 220.975351,56.3163292 C221.059689,56.5893513 220.92078,56.8833751 220.662807,56.9726323 C220.402354,57.0645148 220.124537,56.9175029 220.0402,56.6444808 C218.350973,51.2601701 210.703566,53.4758494 210.62667,53.4994763 C210.403424,53.5651066 210.175217,53.4600981 210.066075,53.2579568" id="Fill-39" fill="#000000"></path>
                </g>
            </g>
        </g>
    </g>
</svg>