<?xml version="1.0" encoding="UTF-8"?>
<svg width="326px" height="324px" viewBox="0 0 326 324" version="1.1" xmlns="http://www.w3.org/2000/svg" xmlns:xlink="http://www.w3.org/1999/xlink">
    <!-- Generator: Sketch 53.2 (72643) - https://sketchapp.com -->
    <title>Group 12 Copy</title>
    <desc>Created with Sketch.</desc>
    <defs>
        <polygon id="path-1" points="0.330410688 0.598987949 178.842327 0.598987949 178.842327 202.904239 0.330410688 202.904239"></polygon>
        <path d="M86.9337793,200.189801 C71.7059964,200.170596 39.8943308,199.0968 20.8926075,191.104518 C20.8926075,191.104518 21.6733733,187.541778 22.6552454,181.37687 C15.533715,179.90776 8.8646739,178.055017 3.21299425,175.708605 C3.21299425,175.708605 15.7998852,140.812788 0.503973554,86.3456935 L184.149552,0.0607754681 C203.659824,10.7608904 214.472247,27.6675478 202.485718,54.0133839 C169.847342,125.749952 187.923253,175.708605 187.923253,175.708605 C182.274531,178.055017 175.60549,179.90776 168.481002,181.37687 C169.462874,187.541778 170.246597,191.104518 170.246597,191.104518 C151.242684,199.0968 119.43045,200.170596 104.202519,200.189801 L103.358326,200.189801 C98.5216768,200.183666 95.5681236,200.073819 95.5681236,200.073819 C95.5681236,200.073819 92.6145704,200.183666 87.7779654,200.189801 L86.9337726,200.189801" id="path-3"></path>
        <polygon id="path-5" points="0.000211671236 0.513838291 154.696748 0.513838291 154.696748 89.2992327 0.000211671236 89.2992327"></polygon>
    </defs>
    <g id="Homepage" stroke="none" stroke-width="1" fill="none" fill-rule="evenodd">
        <g id="Home-Copy-6" transform="translate(-847.000000, -2583.000000)">
            <g id="Group-12-Copy" transform="translate(847.000000, 2583.000000)">
                <g id="Group-7" transform="translate(10.000000, 26.000000)">
                    <path d="M4.79279871,71.1827177 C37.4384827,142.760104 19.3568859,192.612932 19.3568859,192.612932 C50.8488031,205.651821 111.741065,203.441085 111.741065,203.441085 C111.741065,203.441085 172.633328,205.651821 204.125245,192.612932 C204.125245,192.612932 186.043648,142.760104 218.689332,71.1827177 C243.868074,15.9825795 164.166454,0 111.741065,0 C59.3156765,0 -20.3859432,15.9825795 4.79279871,71.1827177 Z" id="Fill-1" fill="#3D3F44"></path>
                    <g id="Group-5" transform="translate(22.280696, 14.250799)">
                        <mask id="mask-2" fill="white">
                            <use xlink:href="#path-1"></use>
                        </mask>
                        <g id="Clip-4"></g>
                        <path d="M89.586369,0.598987949 C46.7941509,0.598987949 -17.5035209,14.0507788 4.96239354,59.0811609 C32.5556905,114.376367 14.9659611,193.830741 14.9659611,193.830741 C40.6058288,204.6094 89.586369,202.788701 89.586369,202.788701 C89.586369,202.788701 138.569864,204.6094 164.209732,193.830741 C164.209732,193.830741 146.620003,114.376367 174.210344,59.0811609 C196.676259,14.0507788 132.378587,0.598987949 89.586369,0.598987949" id="Fill-3" fill="#FD6363" mask="url(#mask-2)"></path>
                    </g>
                    <g id="Group-8" transform="translate(16.204142, 16.965237)">
                        <mask id="mask-4" fill="white">
                            <use xlink:href="#path-3"></use>
                        </mask>
                        <g id="Clip-7"></g>
                    </g>
                </g>
                <path d="M120.486281,170 C-2.73048422,170 96.5271137,18 120.486281,18 C144.445449,18 230.151206,170 120.486281,170" id="Fill-9" fill="#D8D7D5"></path>
                <path d="M83.7046147,324 C37.6672119,324 0,286.339292 0,240.309087 L0,175.690574 C0,129.660708 37.6672119,92 83.7046147,92 L170.295385,92 C216.332788,92 254,129.660708 254,175.690574 L254,240.309087 C254,286.339292 216.332788,324 170.295385,324 L83.7046147,324 Z" id="Fill-20" fill="#353535"></path>
                <path d="M146.477239,97.3591459 C146.145147,103.061579 142.594949,108.177238 137.160081,110.436557 C132.957537,112.183217 126.89873,113.39536 118.236625,112.880652 C108.126777,112.279875 101.356443,109.541709 96.9553873,106.686736 C92.3064468,103.670553 89.7122792,98.4698498 90.0254326,93.0949584 L92.4559217,51.3728631 C93.2212198,38.2312415 104.905627,28.2349066 118.553498,29.0460757 L125.635295,29.4668589 C139.283166,30.2776864 149.725782,41.588286 148.960484,54.730249 L146.477239,97.3591459 Z" id="Fill-22" fill="#F9A580"></path>
                <path d="M135.825151,53.1157681 C135.701848,53.0806806 135.57487,53.0529447 135.44455,53.033563 C133.806531,52.7879504 132.279451,53.916766 132.033514,55.5551859 C131.807627,57.0632808 132.745929,58.4771407 134.174768,58.8841559 C134.298071,58.9192434 134.425383,58.9469792 134.555034,58.9663609 C136.193388,59.2123077 137.720802,58.083158 137.966405,56.444738 C138.192626,54.9366431 137.25399,53.5224491 135.825151,53.1157681" id="Fill-24" fill="#000000"></path>
                <path d="M106.825487,53.1157695 C106.702184,53.0806816 106.575206,53.0529454 106.444885,53.0335635 C104.806861,52.7879477 103.279443,53.9167776 103.033505,55.5552183 C102.807617,57.0633323 103.746256,58.4772101 105.175099,58.8842305 C105.298402,58.9193184 105.425381,58.9470546 105.555367,58.9664365 C107.193725,59.2120523 108.72081,58.0832224 108.966413,56.4447817 C109.192636,54.9366677 108.253662,53.5224557 106.825487,53.1157695" id="Fill-26" fill="#000000"></path>
                <path d="M118.449161,88.8301787 C123.557206,89.1234172 128.459855,89.0288839 133,88.6084889 C131.909767,81.2378593 126.233141,75.431292 119.115679,75.02276 C111.998218,74.6145987 105.794158,79.7390435 104,86.9447033 C108.474173,87.8818802 113.341116,88.5369402 118.449161,88.8301787" id="Fill-30" fill="#F0F0F0"></path>
                <path d="M115.5588,66.3529693 L114.11039,72.6263377 C113.508164,75.2350379 115.442049,77.7473357 118.156249,77.8825051 L120.403097,77.9943457 C123.116948,78.1295151 125.298624,75.8216867 124.966494,73.166329 L124.168405,66.7814631 C123.569315,61.991184 116.645456,61.6463992 115.5588,66.3529693" id="Fill-32" fill="#F24725"></path>
                <path d="M91,113.9375 C89.7360367,114.2855 88.4016832,114.6605 87,115.0625 C87.1009946,115.0475 87.2019893,115.0295 87.2999235,115.0145 C88.6495792,114.7985 89.8798776,114.4325 91,113.9375" id="Fill-17" fill="#4D5053"></path>
                <path d="M156,114.032 C156.917972,114.452 157.913364,114.773 159,114.968 C157.957604,114.638 156.959447,114.326 156,114.032" id="Fill-19" fill="#4D5053"></path>
                <g id="Group-6" transform="translate(93.000000, 114.000000)">
                    <path d="M21.1922348,4.10566454 L1.45058922,32.9830208 C0.356601135,34.5823912 1.36553384,36.7789386 3.28367917,36.9710996 L33.2143719,39.9865483 C34.9506747,40.1639277 36.3379572,38.5586447 35.927345,36.8498904 L28.2840932,4.95708536 C28.0142623,3.81003231 26.9965308,3 25.8262862,3 L23.2775579,3 C22.4446018,3 21.6644387,3.41388512 21.1922348,4.10566454" id="Fill-23" fill="#FFFFFF"></path>
                    <path d="M28.8077933,4.10566454 L48.5494762,32.9830208 C49.6434664,34.5823912 48.6345318,36.7789386 46.7134499,36.9710996 L16.7856334,39.9865483 C15.0493273,40.1639277 13.6620422,38.5586447 14.0726551,36.8498904 L21.7129885,4.95708536 C21.9886858,3.81003231 23.0064192,3 24.1737331,3 L26.7224662,3 C27.5554239,3 28.3355884,3.41388512 28.8077933,4.10566454" id="Fill-25" fill="#FFFFFF"></path>
                    <path d="M20.9158357,4.30901244 L0.33898524,40.8259458 C-0.560046584,42.426853 0.419096987,44.4400238 2.21716064,44.6897894 L33.0898541,48.9749244 C34.8315428,49.2186715 36.2913569,47.6478566 35.9501402,45.8964882 L28.0012747,5.09441991 C27.7639065,3.87568419 26.7135525,3 25.4881395,3 L23.141162,3 C22.2213605,3 21.3727694,3.49953119 20.9158357,4.30901244" id="Fill-27" fill="#E5E2E1"></path>
                    <path d="M21.4349082,4.71881881 L7.14746245,45.5742779 C6.56128046,47.2484134 7.79581525,49 9.55732172,49 L40.441415,49 C42.205882,49 43.4404168,47.2484134 42.8512743,45.5742779 L28.5638285,4.71881881 C28.2026457,3.6881233 27.2375178,3 26.1539693,3 L23.8447675,3 C22.761219,3 21.7960911,3.6881233 21.4349082,4.71881881" id="Fill-31" fill="#F3F3F3"></path>
                    <path d="M17,2.50151791 C17,3.88281724 15.8797814,5 14.5015179,5 C13.1202186,5 12,3.88281724 12,2.50151791 C12,1.12021858 13.1202186,0 14.5015179,0 C15.8797814,0 17,1.12021858 17,2.50151791" id="Fill-33" fill="#FFFFFF"></path>
                    <path d="M39,2.50151791 C39,3.88281724 37.8791009,5 36.5,5 C35.1178615,5 34,3.88281724 34,2.50151791 C34,1.12021858 35.1178615,0 36.5,0 C37.8791009,0 39,1.12021858 39,2.50151791" id="Fill-35" fill="#FFFFFF"></path>
                </g>
                <g id="Group-10" transform="translate(171.000000, 19.000000)">
                    <path d="M144.679238,34.8855821 L144.802534,61.6494094 C144.825718,66.7213948 140.703199,70.8887618 135.639624,70.9130398 L109.304819,71.0333741 C104.241244,71.0576521 100.080788,66.9272298 100.05655,61.8563 L99.9343078,35.0914171 C99.9111239,30.0204872 104.033643,25.8520646 109.096164,25.8288422 L135.433077,25.7074523 C140.494544,25.6842299 144.656054,29.8135966 144.679238,34.8855821" id="Fill-1" fill="#F9A580"></path>
                    <path d="M119.649123,62.9153685 L119.649123,97.4173448" id="Stroke-3" stroke="#F9A580" stroke-width="28"></path>
                    <path d="M106.392544,41.2670697 L106.392544,41.2670697 C102.840889,41.2670697 99.9342105,38.4352819 99.9342105,34.9751358 L99.9342105,6.29193383 C99.9342105,2.83178774 102.840889,0 106.392544,0 C109.944199,0 112.850877,2.83178774 112.850877,6.29193383 L112.850877,34.9751358 C112.850877,38.4352819 109.944199,41.2670697 106.392544,41.2670697" id="Fill-5" fill="#F9A580"></path>
                    <g id="Group-9" transform="translate(0.000000, 81.857630)">
                        <mask id="mask-6" fill="white">
                            <use xlink:href="#path-5"></use>
                        </mask>
                        <g id="Clip-8"></g>
                        <path d="M84.7004566,89.2993378 C65.6997882,89.2993378 45.3147898,83.8321236 28.7726827,70.6368487 C10.487463,56.050607 0.000211671236,37.0645395 0.000211671236,18.5491316 L57.1514453,18.5491316 C57.1514453,17.9156323 57.0593683,17.5699917 57.05831,17.56684 C58.6871201,23.568799 75.0249644,33.9653309 86.3906514,32.4640532 C94.6236041,31.3830072 97.5457256,15.5465762 97.5457256,0.513838291 L154.696959,0.513838291 C154.696959,28.582163 148.456891,50.8187225 136.150326,66.6078775 C123.690298,82.5955919 105.417779,89.2993378 84.7004566,89.2993378" id="Fill-7" fill="#353535" mask="url(#mask-6)"></path>
                    </g>
                </g>
                <path d="M174.028403,108.738834 C176.554734,106.757042 178.178498,103.687498 178.178498,100.232665 C178.178498,94.7981682 174.160694,90.3109298 168.9288,89.5360936 C171.440194,87.5521722 173.057558,84.4911434 173.057558,81.0469537 C173.057558,75.8040371 169.321405,71.431747 164.360495,70.4334003 C167.2965,68.4963097 169.236056,65.175583 169.236056,61.3993207 C169.236056,55.8860629 165.100897,51.3456077 159.760183,50.6686903 C161.885373,48.691155 163.218952,45.883438 163.218952,42.758549 C163.218952,38.3160127 160.534726,34.5014343 156.698288,32.8325563 C160.046102,16.175706 127.709499,-15.2754076 120.998933,8.68704149 C114.288368,-15.2754076 81.9538975,16.175706 85.3017122,32.8325563 C81.4652745,34.5014343 78.7810483,38.3160127 78.7810483,42.758549 C78.7810483,45.883438 80.1146265,48.691155 82.237683,50.6686903 C76.8969691,51.3456077 72.7639435,55.8860629 72.7639435,61.3993207 C72.7639435,65.175583 74.7034997,68.4963097 77.6395054,70.4334003 C72.6785945,71.431747 68.9424419,75.8040371 68.9424419,81.0469537 C68.9424419,84.4911434 70.5598055,87.5521722 73.0712,89.5360936 C67.8371723,90.3109298 63.8215017,94.7981682 63.8215017,100.232665 C63.8215017,103.687498 65.4474002,106.757042 67.9694632,108.738834 C63.3776868,110.001136 60,114.186103 60,119.169322 C60,125.150888 64.8584921,130 70.8542596,130 C76.8500271,130 81.7085192,125.150888 81.7085192,119.169322 C81.7085192,115.716618 80.0826206,112.647074 77.5584238,110.663153 C82.152334,109.40298 85.5300208,105.215884 85.5300208,100.232665 C85.5300208,96.7906042 83.9147909,93.7295754 81.4012627,91.745654 C86.6352904,90.9686891 90.6530948,86.4814507 90.6530948,81.0469537 C90.6530948,77.2706914 88.7156724,73.9520934 85.7775329,72.0128741 C90.7384438,71.0145275 94.4745964,66.644366 94.4745964,61.3993207 C94.4745964,58.2744317 93.1388845,55.4667147 91.0179618,53.4891794 C96.3586757,52.812262 100.491701,48.2718068 100.491701,42.758549 C100.491701,42.5520679 100.470364,42.3498442 100.459695,42.1454918 C113.97471,42.8032511 119.082848,32.3195466 120.998933,24.6095003 C122.919286,32.3195466 128.023156,42.8032511 141.538171,42.1454918 C141.529636,42.3498442 141.510433,42.5520679 141.510433,42.758549 C141.510433,48.2718068 145.641324,52.812262 150.982038,53.4891794 C148.858982,55.4667147 147.525404,58.2744317 147.525404,61.3993207 C147.525404,66.644366 151.261556,71.0145275 156.220333,72.0128741 C153.284328,73.9520934 151.346905,77.2706914 151.346905,81.0469537 C151.346905,86.4814507 155.36471,90.9686891 160.596604,91.745654 C158.085209,93.7295754 156.469979,96.7906042 156.469979,100.232665 C156.469979,105.215884 159.847666,109.40298 164.441576,110.663153 C161.917379,112.647074 160.291481,115.716618 160.291481,119.169322 C160.291481,125.150888 165.149973,130 171.14574,130 C177.141508,130 182,125.150888 182,119.169322 C182,114.186103 178.622313,110.001136 174.028403,108.738834" id="Fill-37" fill="#F0F0F0"></path>
            </g>
        </g>
    </g>
</svg>