<?xml version="1.0" encoding="UTF-8"?>
<svg width="601px" height="579px" viewBox="0 0 601 579" version="1.1" xmlns="http://www.w3.org/2000/svg" xmlns:xlink="http://www.w3.org/1999/xlink">
    <!-- Generator: Sketch 53.2 (72643) - https://sketchapp.com -->
    <title>Group 81</title>
    <desc>Created with Sketch.</desc>
    <defs>
        <polygon id="path-1" points="0.0207298246 0.469614035 27.8492912 0.469614035 27.8492912 27.8424632 0.0207298246 27.8424632"></polygon>
        <polygon id="path-3" points="0.406207075 0.46505 212.771728 0.46505 212.771728 414 0.406207075 414"></polygon>
    </defs>
    <g id="Page-1" stroke="none" stroke-width="1" fill="none" fill-rule="evenodd">
        <g id="Group-81" transform="translate(-196.000000, -192.000000)">
            <path d="M370.579648,704 C302.611041,704 247,648.320661 247,580.267468 L247,424.732532 C247,356.67984 302.611041,301 370.579648,301 L498.420352,301 C566.388959,301 622,356.67984 622,424.732532 L622,580.267468 C622,648.320661 566.388959,704 498.420352,704 L370.579648,704 Z" id="Fill-1" fill-opacity="0.771388767" fill="#05080E"></path>
            <path d="M462.071182,306.884159 C462.074611,315.277638 457.373822,323.092481 449.706071,326.882971 C443.77656,329.813788 437.068075,329.994957 424.497688,329.999975 C409.82554,330.005496 403.21063,329.085099 396.604048,325.283066 C389.625127,321.266742 385.432385,313.865927 385.429445,305.954728 L382,242.041837 C385.2761,221.796615 398.042946,207.011546 417.848483,207.004018 L428.126041,207.000003 C447.931578,206.992475 460.872836,221.442809 464,242.010722 L462.071182,306.884159 Z" id="Fill-3" fill="#BB7F65"></path>
            <path d="M448.480234,239.108093 C448.292258,239.066487 448.09977,239.036411 447.903272,239.018365 C445.427999,238.7958 443.240956,240.621938 443.018392,243.097225 C442.813372,245.375511 444.344252,247.409678 446.519766,247.892404 C446.707742,247.93401 446.900731,247.964086 447.096728,247.981631 C449.572001,248.204196 451.759044,246.378559 451.981608,243.903272 C452.186628,241.624985 450.655748,239.590318 448.480234,239.108093" id="Fill-5" fill="#000000"></path>
            <path d="M398.480489,239.108093 C398.292503,239.066487 398.100007,239.03591 397.903499,239.018365 C395.428109,238.7958 393.240962,240.621939 393.018387,243.097227 C392.813358,245.375514 394.344812,247.409682 396.519927,247.892408 C396.707913,247.934014 396.90041,247.96409 397.096917,247.981635 C399.572307,248.2042 401.759454,246.378061 401.981527,243.903274 C402.187058,241.624987 400.655604,239.590318 398.480489,239.108093" id="Fill-7" fill="#000000"></path>
            <g id="Group-11" transform="translate(407.000000, 192.000000)">
                <mask id="mask-2" fill="white">
                    <use xlink:href="#path-1"></use>
                </mask>
                <g id="Clip-10"></g>
                <path d="M15.3666947,27.8424632 L12.5033263,27.8424632 C5.63792281,27.8424632 0.0207298246,22.2252702 0.0207298246,15.3598667 L0.0207298246,12.9518667 C0.0207298246,6.08646316 5.63792281,0.469270175 12.5033263,0.469270175 L15.3666947,0.469270175 C22.2325895,0.469270175 27.8492912,6.08646316 27.8492912,12.9518667 L27.8492912,15.3598667 C27.8492912,22.2252702 22.2325895,27.8424632 15.3666947,27.8424632" id="Fill-9" fill="#000000" mask="url(#mask-2)"></path>
            </g>
            <path d="M412.057376,257.723805 L410.114863,267.896009 C409.30681,272.12651 412.864915,275.99953 417.55748,276 L421.442507,276 C426.135586,276 429.693177,272.12651 428.885124,267.896009 L426.942611,257.723805 C425.48534,250.092065 413.514647,250.092065 412.057376,257.723805" id="Fill-12" fill="#AD422D"></path>
            <path d="M415.999798,243.52121 C415.951872,254.328264 407.406829,263.048651 396.91344,262.999796 C386.420051,262.950437 377.952276,254.149968 378.000202,243.342914 C378.048129,232.53586 386.556983,231.953124 397.050372,232.002483 C407.543761,232.051842 416.047725,232.714156 415.999798,243.52121" id="Fill-14" fill="#000000"></path>
            <path d="M463.999794,243.521396 C463.951868,254.328624 455.406826,263.049151 444.913438,262.999791 C434.42005,262.950936 425.952276,254.150325 426.000202,243.343097 C426.048129,232.535869 434.557471,231.953123 445.050859,232.002483 C455.544247,232.051843 464.04821,232.714168 463.999794,243.521396" id="Fill-16" fill="#000000"></path>
            <path d="M414,242.364096 C414,242.364096 422.806423,236.643394 429,243" id="Stroke-18" stroke="#000000" stroke-width="8.856"></path>
            <g id="Group-4" transform="translate(422.000000, 227.000000)">
                <path d="M251.420352,534 L123.579648,534 C55.6110412,534 0,472.932262 0,398.293183 L0,227.706268 C0,153.067738 55.6110412,92 123.579648,92 L251.420352,92 C319.388959,92 375,153.067738 375,227.706268 L375,398.293183 C375,472.932262 319.388959,534 251.420352,534" id="Fill-20" fill="#C4F0E4"></path>
                <path d="M217.279996,100.097321 C216.790302,108.447312 211.555264,115.938098 203.541137,119.246387 C197.344164,121.803997 188.409992,123.57892 175.637057,122.82524 C160.729316,121.945531 150.745941,117.936075 144.256249,113.755578 C137.401032,109.339025 133.575734,101.723709 134.037502,93.8533319 L137.621444,32.7602638 C138.749934,13.5171751 155.979483,-1.12031531 176.104311,0.0674679272 L186.54696,0.683614852 C206.671788,1.87089797 222.07022,18.4328473 220.94173,37.6764361 L217.279996,100.097321 Z" id="Fill-22" fill="#F9A580"></path>
                <path d="M206.737726,33.1736521 C206.552772,33.1210208 206.362305,33.0794171 206.166825,33.0503445 C203.709797,32.6819256 201.419177,34.3751489 201.050271,36.8327789 C200.71144,39.0949212 202.118893,41.215711 204.262152,41.8262338 C204.447106,41.8788651 204.638074,41.9204688 204.832552,41.9495413 C207.290081,42.3184615 209.581203,40.6247369 209.949607,38.167107 C210.288939,35.9049647 208.880985,33.7836737 206.737726,33.1736521" id="Fill-24" fill="#000000"></path>
                <path d="M157.738231,34.1736543 C157.553276,34.1210224 157.362808,34.0794181 157.167328,34.0503452 C154.710292,33.6819216 152.419164,35.3751664 152.050258,37.8328275 C151.711425,40.0949985 153.119384,42.2158152 155.262649,42.8263457 C155.447603,42.8789776 155.638071,42.9205819 155.83305,42.9496548 C158.290588,43.3180784 160.581215,41.6248336 160.94962,39.1671725 C161.288953,36.9050015 159.880493,34.7836836 157.738231,34.1736543" id="Fill-26" fill="#000000"></path>
                <path d="M186.573206,22.2276465 C197.836796,24.2843382 208.649086,24.4890009 218,23.1627678 C213.272546,10.7574323 200.819754,1.51166603 185.673591,0.654191901 L175.253887,0.0641691799 C165.700958,-0.477443878 156.82672,2.44151499 150,7.6084077 C159.044906,14.1834944 171.853464,19.539712 186.573206,22.2276465" id="Fill-28" fill="#000000"></path>
                <path d="M173.926371,86.7573981 C181.32423,87.1763103 188.424618,87.0412628 195,86.4406984 C193.421042,75.9112276 185.199721,67.6161315 174.891673,67.0325143 C164.583626,66.4494267 155.598436,73.7700622 153,84.0638618 C159.479837,85.402686 166.528512,86.338486 173.926371,86.7573981" id="Fill-30" fill="#000000"></path>
                <path d="M170.267345,52.9176883 L168.160567,62.1186286 C167.284602,65.9447223 170.097526,69.6294257 174.045453,69.8276741 L177.313595,69.991707 C181.261016,70.1899554 184.434363,66.8051405 183.951264,62.9106159 L182.790407,53.5461459 C181.919003,46.5204033 171.847936,46.0147189 170.267345,52.9176883" id="Fill-32" fill="#F24725"></path>
                <path d="M150,7.76128973 C150,7.50464088 149.971239,7.25410272 149.963439,7 C143.227989,12.3341203 138.438053,20.0488623 137,29 C144.669942,25.2755364 150,17.1788765 150,7.76128973" id="Fill-34" fill="#3C3C3C"></path>
            </g>
            <path d="M405.545678,771 L321.283035,771 C276.482883,771 196,745.006612 196,704.510436 L196,509.869829 C196,469.373654 232.65417,436.240501 277.454322,436.240501 L435.333285,420 C480.133437,420 487,451.870881 487,492.367509 L487,697.370671 C487,737.866847 450.34533,771 405.545678,771 L419.446429,465.168901" id="Fill-36" fill="#2C5156"></path>
            <path d="M386.983237,428.486403 C387.3008,436.796263 383.088357,444.706374 375.88146,448.742033 C370.30867,451.862687 362.096322,454.467585 350.048823,454.935633 C335.988431,455.482526 326.254466,452.463818 319.780254,448.942912 C312.941193,445.22414 308.646124,438.051254 308.347475,430.218481 L306.025977,369.419953 C305.294785,350.269157 320.089356,334.146611 339.070488,333.408883 L348.919433,333.026209 C367.900564,332.288481 383.880772,347.215294 384.611466,366.36609 L386.983237,428.486403 Z" id="Fill-38" fill="#F9A580"></path>
            <path d="M334.957487,375.393171 L333.091405,388.144639 C332.315365,393.448704 336.582818,398.158492 342.017148,397.995911 L346.514083,397.861101 C351.943291,397.69852 355.911596,392.749406 354.817969,387.50492 L352.187628,374.888263 C350.213464,365.422236 336.356921,365.828182 334.957487,375.393171" id="Fill-40" fill="#F24725"></path>
            <path d="M373.364919,363.016271 C373.194957,363.001036 373.021186,362.996275 372.845987,363.00294 C370.638384,363.08816 368.917815,364.94634 369.003034,367.15397 C369.081112,369.185923 370.661712,370.805582 372.635082,370.98364 C372.805044,370.999351 372.978339,371.003636 373.154014,370.99697 C375.361141,370.91175 377.082186,369.05357 376.996967,366.84594 C376.918413,364.813987 375.337813,363.194328 373.364919,363.016271" id="Fill-42" fill="#000000"></path>
            <path d="M315.364919,366.01636 C315.194957,366.000649 315.021186,365.996364 314.845987,366.00303 C312.638384,366.087774 310.917815,367.94643 311.003034,370.153584 C311.081588,372.186013 312.662188,373.805196 314.635082,373.983729 C314.80552,373.998964 314.978339,374.003725 315.154014,373.99706 C317.361141,373.91184 319.082186,372.05366 318.996967,369.84603 C318.918889,367.814077 317.337813,366.194418 315.364919,366.01636" id="Fill-44" fill="#000000"></path>
            <path d="M371.927355,332.42532 L317.074244,338.974921 C315.165973,339.202372 313.415422,337.85695 313.183124,335.984929 L310.145611,311.486476 C308.827407,300.862535 316.60864,291.112303 327.435449,289.819787 L349.854996,287.142788 C360.682812,285.849778 370.618725,293.484716 371.936425,304.109151 L374.974442,328.60711 C375.206236,330.479625 373.835123,332.197869 371.927355,332.42532" id="Fill-46" fill="#000000"></path>
            <path d="M380.543056,336.123178 L301.516477,346.96372 C299.343224,347.262135 297.326567,345.686338 297.035461,343.462861 L297.035461,343.462347 C296.743854,341.238357 298.283199,339.174617 300.456953,338.876715 L379.484035,328.036174 C381.656785,327.738272 383.672941,329.313556 383.964548,331.537546 C384.256155,333.761537 382.716308,335.825277 380.543056,336.123178" id="Fill-48" fill="#000000"></path>
            <g id="Group-52" transform="translate(449.000000, 429.000000)">
                <mask id="mask-4" fill="white">
                    <use xlink:href="#path-3"></use>
                </mask>
                <g id="Clip-51"></g>
                <path d="M76.0880208,333.46505 C34.4630986,333.46505 0.406207075,304.034357 0.406207075,268.063654 L0.406207075,65.8664462 C0.406207075,29.8957434 34.4630986,0.46505 76.0880208,0.46505 L137.089915,0.46505 C178.714837,0.46505 212.771728,29.8957434 212.771728,65.8664462 L212.771728,268.063654 C212.771728,304.034357 178.714837,333.46505 137.089915,333.46505 L76.0880208,333.46505 Z" id="Fill-50" fill="#FF754E" mask="url(#mask-4)"></path>
            </g>
            <path d="M432.187358,480 L406,452.03588 C409.070311,449.175981 482.005064,382 554.823361,382 C601.991094,382 625.596451,407.773973 637.093499,429.396384 C648.689508,451.203673 649.900039,472.423436 650,474.771054 L611.662348,476.394604 C611.357466,470.740087 607.136101,420.259059 554.823361,420.259059 C531.603354,420.259059 503.322308,430.322275 473.036037,449.358368 C449.037832,464.444721 432.352794,479.846017 432.187358,480" id="Fill-53" fill="#F9A580"></path>
            <path d="M439.212165,491 L397,445.66841 C405.040389,438.127609 477.744254,372 553.828811,372 C629.798913,372 657.749097,428.809078 658,466.992632 L596.179423,467.402452 L596.18642,467.867953 C596.182922,467.769636 595.740093,457.962531 590.177246,449.257978 C587.773676,445.494851 580.458007,434.046958 553.828811,434.046958 C509.619419,434.046958 456.102129,475.159952 439.212165,491" id="Fill-55" fill="#2C5156"></path>
            <path d="M583.568515,408.598347 C586.60953,416.463657 593.454372,421.68036 601.153601,423 C605.936515,416.777857 607.473341,408.268928 604.431838,400.403617 C601.389849,392.536343 594.545007,387.31964 586.846265,386 C582.063351,392.222143 580.526526,400.731563 583.568515,408.598347" id="Fill-57" fill="#F8E71C"></path>
            <path d="M494.840538,399.955806 C491.575921,407.821372 492.80797,416.510108 497.32051,423 C504.963446,421.94882 511.8939,416.911283 515.158516,409.046225 C518.424576,401.178628 517.192046,392.489384 512.679505,386 C505.03657,387.05118 498.106597,392.088717 494.840538,399.955806" id="Fill-59" fill="#F8E71C"></path>
            <path d="M583.88115,428.486403 C584.208361,436.796263 579.867952,444.706374 572.442124,448.742033 C566.700045,451.862687 564.800379,454.467585 552.387414,454.935633 C537.899383,455.482526 534.432903,452.463818 527.762018,448.942912 C520.7152,445.22414 516.289655,438.051254 515.980908,430.218481 L507.026731,369.419953 C506.27384,350.269157 521.517327,334.146611 541.075067,333.408883 L551.223715,333.026209 C570.781455,332.288481 587.246596,347.215294 588,366.36609 L583.88115,428.486403 Z" id="Fill-61" fill="#F9A580"></path>
            <path d="M544.067798,395.189538 L543.049845,402.414904 C542.626633,405.420898 544.954041,408.089698 547.918053,407.997689 L550.371045,407.921363 C553.332505,407.82883 555.49706,405.024107 554.900787,402.052616 L553.465237,394.903054 C552.389085,389.539314 544.831008,389.769338 544.067798,395.189538" id="Fill-63" fill="#F24725"></path>
            <path d="M571.364703,380.016271 C571.19473,380.001036 571.020949,379.996275 570.84574,380.00294 C568.638006,380.087685 566.917811,381.946362 567.003035,384.154017 C567.081117,386.185993 568.661811,387.805193 570.635298,387.983729 C570.80527,387.998964 570.978575,388.003725 571.154261,387.99706 C573.361519,387.911839 575.08219,386.053638 574.996966,383.845983 C574.918884,381.813531 573.33819,380.194331 571.364703,380.016271 L0,0" id="Fill-65" fill="#266392"></path>
            <path d="M525.364919,382.016271 C525.194481,382.001036 525.021186,381.996275 524.845987,382.00294 C522.638384,382.088161 520.917815,383.946362 521.003034,386.154017 C521.081112,388.185993 522.662188,389.805669 524.635082,389.983729 C524.805044,389.998964 524.978339,390.003725 525.154014,389.99706 C527.361141,389.911839 529.082186,388.053638 528.996967,385.845983 C528.918413,383.814007 527.337813,382.194331 525.364919,382.016271" id="Fill-67" fill="#266392"></path>
            <path d="M540,385 C540,392.7321 533.732372,399 526,399 C518.267628,399 512,392.7321 512,385 C512,377.2679 518.267628,371 526,371 C533.732372,371 540,377.2679 540,385 Z" id="Stroke-73" stroke="#000000" stroke-width="8.531"></path>
            <path d="M584,385 C584,392.7321 577.73199,399 569.999754,399 C562.267518,399 556,392.7321 556,385 C556,377.2679 562.267518,371 569.999754,371 C577.73199,371 584,377.2679 584,385 Z" id="Stroke-75" stroke="#000000" stroke-width="8.531"></path>
            <path d="M540,383 C542.242406,380.47411 544.945327,379 547.854971,379 C550.463751,379 552.90657,380.185275 555,382.25" id="Stroke-77" stroke="#000000" stroke-width="8.686"></path>
            <path d="M645.516569,530.413836 L613.496152,531.985319 C606.859637,532.310557 601.161671,527.191799 600.833279,520.609473 L599.014843,484.146092 C598.686452,477.563766 603.847461,471.911897 610.483474,471.586162 L642.503891,470.014679 C649.140405,469.689442 654.838372,474.808697 655.166262,481.390526 L656.9852,517.853907 C657.31309,524.436233 652.152582,530.088102 645.516569,530.413836" id="Fill-79" fill="#F9A580"></path>
            <g id="Group-3" transform="translate(507.000000, 333.000000)" fill="#F8E71C">
                <path d="M81.83423,34.4123356 C81.0636092,14.6607604 64.2222135,-0.734321897 44.2175481,0.0270672969 L35.1489832,0.372023218 C35.0713441,1.33644953 35,2.30501946 35,3.28912794 C35,23.5648704 51.6462486,40 72.1817979,40 C75.585854,40 78.8676809,39.5105355 82,38.6647202 L81.83423,34.4123356 Z" id="Fill-69"></path>
                <path d="M42,3.1568551 C42,2.09174789 41.9292265,1.04379467 41.8402393,0 L34.5745081,0.2791423 C14.7303507,1.04379467 -0.737299077,17.7309942 0.0271586689,37.5537362 L0.106778843,39.6210526 C1.74861968,39.8466537 3.41231703,40 5.11556427,40 C25.4868801,40 42,23.505653 42,3.1568551" id="Fill-71"></path>
            </g>
        </g>
    </g>
</svg>