<?xml version="1.0" encoding="UTF-8"?>
<svg width="252px" height="46px" viewBox="0 0 252 46" version="1.1" xmlns="http://www.w3.org/2000/svg" xmlns:xlink="http://www.w3.org/1999/xlink">
    <!-- Generator: Sketch 53.2 (72643) - https://sketchapp.com -->
    <title>Group 12</title>
    <desc>Created with Sketch.</desc>
    <g id="Homepage" stroke="none" stroke-width="1" fill="none" fill-rule="evenodd">
        <g id="Home-Copy-6" transform="translate(-160.000000, -28.000000)" fill-rule="nonzero">
            <g id="Group-12" transform="translate(160.000000, 28.000000)">
                <g id="Group" fill="#2C5156">
                    <g id="google">
                        <path d="M23,0 C10.3177351,0 0,10.3177351 0,23 C0,35.6822649 10.3177351,46 23,46 C35.6822649,46 46,35.6822649 46,23 C46,10.3177351 35.6822649,0 23,0 Z M23,43.3685214 C11.7687032,43.3685214 2.63147859,34.2311506 2.63147859,23 C2.63147859,11.7688494 11.7687032,2.63147859 23,2.63147859 C34.2312968,2.63147859 43.3685214,11.7688494 43.3685214,23 C43.3685214,34.2311506 34.2312968,43.3685214 23,43.3685214 Z" id="Shape"></path>
                        <path d="M32.9623845,21.6880205 L23.9839482,21.6880205 C23.2592176,21.6880205 22.6718229,22.2754152 22.6718229,23.0001458 C22.6718229,23.7248763 23.2592176,24.3122711 23.9839482,24.3122711 L31.550975,24.3122711 C30.9167811,28.4616488 27.3237445,31.6504049 23,31.6504049 C18.2301328,31.6504049 14.3497409,27.770013 14.3497409,23.0001458 C14.3497409,18.2302786 18.2302786,14.3498867 23,14.3498867 C25.182356,14.3498867 27.2663026,15.1648623 28.8679703,16.6443565 C29.4005474,17.1362577 30.2305395,17.1033088 30.7221492,16.5710233 C31.2139046,16.0387377 31.1809556,15.208454 30.6488159,14.7168444 C28.5607872,12.7878743 25.8443961,11.7254902 23,11.7254902 C16.7831502,11.7254902 11.7254902,16.7831502 11.7254902,23 C11.7254902,29.2168498 16.7831502,34.2745098 23,34.2745098 C29.2168498,34.2745098 34.2745098,29.2168498 34.2745098,23 C34.2745098,22.2754152 33.6869692,21.6880205 32.9623845,21.6880205 Z" id="Path"></path>
                    </g>
                </g>
                <path d="M68.978,15.336 C70.8260092,15.336 72.3659938,15.7906621 73.598,16.7 C74.8300062,17.6093379 75.643998,18.8486588 76.04,20.418 L73.4,20.418 C73.062665,19.5819958 72.5090038,18.9146692 71.739,18.416 C70.9689961,17.9173308 70.0560053,17.668 69,17.668 C68.0319952,17.668 67.1630038,17.8953311 66.393,18.35 C65.6229961,18.8046689 65.0216688,19.4499958 64.589,20.286 C64.1563312,21.1220042 63.94,22.104661 63.94,23.234 C63.94,24.4220059 64.1599978,25.4413291 64.6,26.292 C65.0400022,27.1426709 65.6596627,27.7916644 66.459,28.239 C67.2583373,28.6863356 68.1859947,28.91 69.242,28.91 C70.5326731,28.91 71.6399954,28.5103373 72.564,27.711 C73.4880046,26.9116627 74.0453324,25.8153403 74.236,24.422 L68.538,24.422 L68.538,22.574 L76.348,22.574 L76.348,24.972 C76.1719991,26.1160057 75.7650032,27.153662 75.127,28.085 C74.4889968,29.016338 73.6456719,29.7606639 72.597,30.318 C71.5483281,30.8753361 70.3493401,31.154 69,31.154 C67.4893258,31.154 66.1546725,30.81667 64.996,30.142 C63.8373275,29.46733 62.9426698,28.5323393 62.312,27.337 C61.6813302,26.1416607 61.366,24.7740077 61.366,23.234 C61.366,21.6939923 61.6813302,20.3263393 62.312,19.131 C62.9426698,17.9356607 63.8336609,17.0043367 64.985,16.337 C66.1363391,15.6696633 67.4673258,15.336 68.978,15.336 Z M84.422,18.724 C85.5953392,18.724 86.6513286,18.9733308 87.59,19.472 C88.5286714,19.9706692 89.2619974,20.6893286 89.79,21.628 C90.3180026,22.5666714 90.582,23.6666604 90.582,24.928 C90.582,26.2040064 90.3180026,27.3113286 89.79,28.25 C89.2619974,29.1886714 88.5286714,29.9073308 87.59,30.406 C86.6513286,30.9046692 85.5953392,31.154 84.422,31.154 C83.2486608,31.154 82.196338,30.9046692 81.265,30.406 C80.333662,29.9073308 79.600336,29.1850047 79.065,28.239 C78.529664,27.2929953 78.262,26.1893396 78.262,24.928 C78.262,23.6666604 78.529664,22.5666714 79.065,21.628 C79.600336,20.6893286 80.333662,19.9706692 81.265,19.472 C82.196338,18.9733308 83.2486608,18.724 84.422,18.724 Z M84.422,20.902 C83.7766634,20.902 83.1826694,21.0486652 82.64,21.342 C82.0973306,21.6353348 81.6610016,22.0863303 81.331,22.695 C81.0009983,23.3036697 80.836,24.0479956 80.836,24.928 C80.836,25.8226711 81.0009983,26.5706637 81.331,27.172 C81.6610016,27.7733363 82.0973306,28.2206652 82.64,28.514 C83.1826694,28.8073348 83.7766634,28.954 84.422,28.954 C85.0673366,28.954 85.6613306,28.8073348 86.204,28.514 C86.7466694,28.2206652 87.1829983,27.7733363 87.513,27.172 C87.8430016,26.5706637 88.008,25.8226711 88.008,24.928 C88.008,24.0479956 87.8430016,23.3036697 87.513,22.695 C87.1829983,22.0863303 86.7466694,21.6353348 86.204,21.342 C85.6613306,21.0486652 85.0673366,20.902 84.422,20.902 Z M98.546,18.724 C99.7193392,18.724 100.775329,18.9733308 101.714,19.472 C102.652671,19.9706692 103.385997,20.6893286 103.914,21.628 C104.442003,22.5666714 104.706,23.6666604 104.706,24.928 C104.706,26.2040064 104.442003,27.3113286 103.914,28.25 C103.385997,29.1886714 102.652671,29.9073308 101.714,30.406 C100.775329,30.9046692 99.7193392,31.154 98.546,31.154 C97.3726608,31.154 96.320338,30.9046692 95.389,30.406 C94.457662,29.9073308 93.724336,29.1850047 93.189,28.239 C92.653664,27.2929953 92.386,26.1893396 92.386,24.928 C92.386,23.6666604 92.653664,22.5666714 93.189,21.628 C93.724336,20.6893286 94.457662,19.9706692 95.389,19.472 C96.320338,18.9733308 97.3726608,18.724 98.546,18.724 Z M98.546,20.902 C97.9006634,20.902 97.3066694,21.0486652 96.764,21.342 C96.2213306,21.6353348 95.7850016,22.0863303 95.455,22.695 C95.1249983,23.3036697 94.96,24.0479956 94.96,24.928 C94.96,25.8226711 95.1249983,26.5706637 95.455,27.172 C95.7850016,27.7733363 96.2213306,28.2206652 96.764,28.514 C97.3066694,28.8073348 97.9006634,28.954 98.546,28.954 C99.1913366,28.954 99.7853306,28.8073348 100.328,28.514 C100.870669,28.2206652 101.306998,27.7733363 101.637,27.172 C101.967002,26.5706637 102.132,25.8226711 102.132,24.928 C102.132,24.0479956 101.967002,23.3036697 101.637,22.695 C101.306998,22.0863303 100.870669,21.6353348 100.328,21.342 C99.7853306,21.0486652 99.1913366,20.902 98.546,20.902 Z M111.988,18.724 C113.088005,18.724 114.026663,18.9953306 114.804,19.538 C115.581337,20.0806694 116.131332,20.7993289 116.454,21.694 L116.454,18.878 L118.962,18.878 L118.962,31.132 C118.962,32.261339 118.731002,33.262329 118.269,34.135 C117.806998,35.007671 117.143338,35.6933308 116.278,36.192 C115.412662,36.6906692 114.386006,36.94 113.198,36.94 C111.496658,36.94 110.121672,36.5366707 109.073,35.73 C108.024328,34.9233293 107.368001,33.8306736 107.104,32.452 L109.59,32.452 C109.795334,33.1706703 110.19133,33.7316646 110.778,34.135 C111.36467,34.5383353 112.112662,34.74 113.022,34.74 C114.019338,34.74 114.840663,34.4320031 115.486,33.816 C116.131337,33.1999969 116.454,32.3053392 116.454,31.132 L116.454,28.184 C116.131332,29.0786711 115.581337,29.7973306 114.804,30.34 C114.026663,30.8826694 113.088005,31.154 111.988,31.154 C110.931995,31.154 109.989671,30.9046692 109.161,30.406 C108.332329,29.9073308 107.683336,29.1886714 107.214,28.25 C106.744664,27.3113286 106.51,26.2040064 106.51,24.928 C106.51,23.6666604 106.744664,22.5666714 107.214,21.628 C107.683336,20.6893286 108.332329,19.9706692 109.161,19.472 C109.989671,18.9733308 110.931995,18.724 111.988,18.724 Z M112.758,20.924 C111.643328,20.924 110.752337,21.2796631 110.085,21.991 C109.417663,22.7023369 109.084,23.6813271 109.084,24.928 C109.084,26.1746729 109.417663,27.1536631 110.085,27.865 C110.752337,28.5763369 111.643328,28.932 112.758,28.932 C113.462004,28.932 114.092664,28.7670016 114.65,28.437 C115.207336,28.1069983 115.647332,27.6413363 115.97,27.04 C116.292668,26.4386637 116.454,25.7346707 116.454,24.928 C116.454,24.135996 116.292668,23.4356697 115.97,22.827 C115.647332,22.2183303 115.207336,21.7490016 114.65,21.419 C114.092664,21.0889983 113.462004,20.924 112.758,20.924 Z M124.484,14.72 L124.484,31 L121.976,31 L121.976,14.72 L124.484,14.72 Z M138.784,24.356 C138.784,24.7666687 138.754667,25.1259985 138.696,25.434 L129.368,25.434 C129.412,26.6806729 129.756663,27.6046637 130.402,28.206 C131.047337,28.8073363 131.846662,29.108 132.8,29.108 C133.636004,29.108 134.343664,28.8953355 134.923,28.47 C135.502336,28.0446645 135.857999,27.4800035 135.99,26.776 L138.674,26.776 C138.512666,27.6266709 138.175336,28.3819967 137.662,29.042 C137.148664,29.7020033 136.481337,30.2189981 135.66,30.593 C134.838663,30.9670019 133.922005,31.154 132.91,31.154 C131.736661,31.154 130.699005,30.9046692 129.797,30.406 C128.894995,29.9073308 128.187336,29.1886714 127.674,28.25 C127.160664,27.3113286 126.904,26.2040064 126.904,24.928 C126.904,23.6666604 127.160664,22.5666714 127.674,21.628 C128.187336,20.6893286 128.894995,19.9706692 129.797,19.472 C130.699005,18.9733308 131.736661,18.724 132.91,18.724 C134.098006,18.724 135.135662,18.9696642 136.023,19.461 C136.910338,19.9523358 137.592331,20.6269957 138.069,21.485 C138.545669,22.3430043 138.784,23.2999947 138.784,24.356 Z M136.254,24.29 C136.283333,23.497996 136.147668,22.834336 135.847,22.299 C135.546332,21.763664 135.135669,21.3676679 134.615,21.111 C134.094331,20.854332 133.526003,20.726 132.91,20.726 C131.927328,20.726 131.106003,21.0266637 130.446,21.628 C129.785997,22.2293363 129.426667,23.1166608 129.368,24.29 L136.254,24.29 Z M142.744,29.284 C143.008001,29.95867 143.14,30.6553297 143.14,31.374 C143.14,32.1953374 142.927335,32.8663307 142.502,33.387 C142.076665,33.9076693 141.431338,34.168 140.566,34.168 L140.566,33.156 C140.932668,33.156 141.203999,33.0606676 141.38,32.87 C141.556001,32.6793324 141.644,32.3566689 141.644,31.902 L141.644,31.704 L140.368,31.704 L140.368,29.284 L142.744,29.284 Z M154.14,25.544 L154.14,31 L150.378,31 L150.378,15.446 L156.472,15.446 C158.320009,15.446 159.727995,15.9043287 160.696,16.821 C161.664005,17.7376712 162.148,18.9733256 162.148,20.528 C162.148,21.4960048 161.931669,22.3576629 161.499,23.113 C161.066331,23.8683371 160.424671,24.4623312 159.574,24.895 C158.723329,25.3276688 157.689339,25.544 156.472,25.544 L154.14,25.544 Z M156.054,22.53 C157.564674,22.53 158.32,21.8626733 158.32,20.528 C158.32,19.1639932 157.564674,18.482 156.054,18.482 L154.14,18.482 L154.14,22.53 L156.054,22.53 Z M167.758,14.72 L167.758,31 L163.996,31 L163.996,14.72 L167.758,14.72 Z M175.018,18.57 C175.956671,18.57 176.76333,18.7826645 177.438,19.208 C178.11267,19.6333355 178.611332,20.212663 178.934,20.946 L178.934,18.724 L182.674,18.724 L182.674,31 L178.934,31 L178.934,28.778 C178.611332,29.511337 178.11267,30.0906645 177.438,30.516 C176.76333,30.9413355 175.956671,31.154 175.018,31.154 C174.005995,31.154 173.100337,30.9010025 172.301,30.395 C171.501663,29.8889975 170.871002,29.1593381 170.409,28.206 C169.946998,27.2526619 169.716,26.1380064 169.716,24.862 C169.716,23.5713269 169.946998,22.4530047 170.409,21.507 C170.871002,20.5609953 171.501663,19.8350025 172.301,19.329 C173.100337,18.8229975 174.005995,18.57 175.018,18.57 Z M176.228,21.87 C175.421329,21.87 174.772336,22.1339974 174.281,22.662 C173.789664,23.1900026 173.544,23.9233286 173.544,24.862 C173.544,25.8006714 173.789664,26.5339974 174.281,27.062 C174.772336,27.5900026 175.421329,27.854 176.228,27.854 C177.020004,27.854 177.668997,27.5826694 178.175,27.04 C178.681003,26.4973306 178.934,25.7713379 178.934,24.862 C178.934,23.9379954 178.681003,23.208336 178.175,22.673 C177.668997,22.137664 177.020004,21.87 176.228,21.87 Z M188.108,18.724 L191.056,26.248 L193.806,18.724 L197.964,18.724 L190.308,36.852 L186.172,36.852 L189.054,30.538 L183.906,18.724 L188.108,18.724 Z M213.76,15.446 L213.76,18.438 L207.38,18.438 L207.38,21.848 L212.308,21.848 L212.308,24.708 L207.38,24.708 L207.38,31 L203.618,31 L203.618,15.446 L213.76,15.446 Z M220.36,18.57 C221.298671,18.57 222.10533,18.7826645 222.78,19.208 C223.45467,19.6333355 223.953332,20.212663 224.276,20.946 L224.276,18.724 L228.016,18.724 L228.016,31 L224.276,31 L224.276,28.778 C223.953332,29.511337 223.45467,30.0906645 222.78,30.516 C222.10533,30.9413355 221.298671,31.154 220.36,31.154 C219.347995,31.154 218.442337,30.9010025 217.643,30.395 C216.843663,29.8889975 216.213002,29.1593381 215.751,28.206 C215.288998,27.2526619 215.058,26.1380064 215.058,24.862 C215.058,23.5713269 215.288998,22.4530047 215.751,21.507 C216.213002,20.5609953 216.843663,19.8350025 217.643,19.329 C218.442337,18.8229975 219.347995,18.57 220.36,18.57 Z M221.57,21.87 C220.763329,21.87 220.114336,22.1339974 219.623,22.662 C219.131664,23.1900026 218.886,23.9233286 218.886,24.862 C218.886,25.8006714 219.131664,26.5339974 219.623,27.062 C220.114336,27.5900026 220.763329,27.854 221.57,27.854 C222.362004,27.854 223.010997,27.5826694 223.517,27.04 C224.023003,26.4973306 224.276,25.7713379 224.276,24.862 C224.276,23.9379954 224.023003,23.208336 223.517,22.673 C223.010997,22.137664 222.362004,21.87 221.57,21.87 Z M230.26,15.27 C230.26,14.6979971 230.465331,14.2250019 230.876,13.851 C231.286669,13.4769981 231.82933,13.29 232.504,13.29 C233.17867,13.29 233.721331,13.4769981 234.132,13.851 C234.542669,14.2250019 234.748,14.6979971 234.748,15.27 C234.748,15.8273361 234.542669,16.2929981 234.132,16.667 C233.721331,17.0410019 233.17867,17.228 232.504,17.228 C231.82933,17.228 231.286669,17.0410019 230.876,16.667 C230.465331,16.2929981 230.26,15.8273361 230.26,15.27 Z M234.374,18.724 L234.374,31 L230.612,31 L230.612,18.724 L234.374,18.724 Z M240.732,21.034 C241.201336,20.2859963 241.80633,19.6920022 242.547,19.252 C243.28767,18.8119978 244.090662,18.592 244.956,18.592 L244.956,22.618 L243.878,22.618 C242.880662,22.618 242.107003,22.8306645 241.557,23.256 C241.006997,23.6813355 240.732,24.3999949 240.732,25.412 L240.732,31 L236.97,31 L236.97,18.724 L240.732,18.724 L240.732,21.034 Z M251.688,14.676 L251.226,25.434 L248.036,25.434 L247.574,14.676 L251.688,14.676 Z M251.6,27.238 L251.6,31 L247.684,31 L247.684,27.238 L251.6,27.238 Z" id="Google,PlayFair!" fill="#2A1F1F"></path>
            </g>
        </g>
    </g>
</svg>